<svg width="22" height="22" viewBox="0 0 22 22" fill="none" xmlns="http://www.w3.org/2000/svg">
<path d="M0.919921 3.32L0.919922 18.68C0.919922 20.0048 1.99512 21.08 3.31992 21.08L18.6799 21.08C20.0047 21.08 21.0799 20.0048 21.0799 18.68L21.0799 3.32C21.0799 1.9952 20.0047 0.919998 18.6799 0.919998L3.31992 0.919998C1.99512 0.919998 0.919921 1.9952 0.919921 3.32ZM14.8399 4.8944L14.8351 6.6848C14.8351 6.6848 14.8399 6.7232 14.8399 6.7856C14.8399 6.9296 14.8015 7.2272 14.5615 7.5776C14.1247 8.2064 13.0399 8.8064 13.0399 9.2816C13.0399 9.3152 13.0447 9.344 13.0543 9.3728C13.1839 9.7856 13.5967 9.9104 14.1007 9.9104C14.2783 9.9104 14.3599 10.0352 14.3599 10.3712L14.3599 11.2976C14.3599 12.3344 14.3359 13.3376 13.1023 14.4656C11.2831 16.1264 8.04792 17.6816 8.04792 17.6816C8.04792 17.6816 7.86072 17.768 7.75032 17.6768C7.64952 17.5904 7.63992 17.3888 7.63992 17.312C7.63992 17.2928 7.63992 17.2832 7.63992 17.2832L7.63992 15.3632C7.63992 15.3632 7.67352 15.1856 7.76952 15.056C7.85112 14.9456 7.99992 14.888 7.99992 14.888C7.99992 14.888 8.63352 14.5616 9.34872 14.1536C10.5295 13.4672 10.9231 13.0976 10.9231 12.8336C10.9231 12.7904 10.9135 12.7472 10.8895 12.704C10.6735 12.3104 8.92632 12.4256 8.92632 12.4256C8.92632 12.4256 8.29272 12.4208 8.01432 12.6272C7.79352 12.7856 7.73112 13.088 7.71192 13.2224C7.69752 13.328 7.44792 13.1552 7.33272 12.9248C7.18872 12.6272 7.15992 12.1328 7.15992 11.5376L7.15992 11.2496C7.16952 10.688 7.22712 10.6736 7.27992 10.4528C7.43832 9.7904 8.05752 10.016 9.54072 10.016C10.0159 10.016 10.6831 10.1024 10.9087 9.7616C10.9231 9.7376 10.9327 9.704 10.9327 9.6608C10.9327 9.44 10.6495 8.9648 9.36792 8.2064C8.63832 7.784 7.91352 7.4576 7.91352 7.4576C7.91352 7.4576 7.78392 7.3856 7.71672 7.2752C7.65432 7.1696 7.65432 7.1696 7.65432 7.0304L7.65432 7.016C7.65432 6.8624 7.63992 5.336 7.63992 5L7.63992 4.9616C7.63992 4.64 7.64472 4.3472 7.84152 4.2944C8.13912 4.2176 8.67192 4.5296 9.77592 5.3504C11.5855 6.704 11.4511 6.8576 12.4975 5.7344C13.4959 4.6592 13.9807 4.4384 14.0431 4.4C14.7823 3.9536 14.8399 4.8944 14.8399 4.8944Z" fill="white"/>
</svg>
