<svg width="21" height="21" viewBox="0 0 21 21" fill="none" xmlns="http://www.w3.org/2000/svg">
<path d="M17.76 0L2.4 0C1.0752 0 0 1.0752 0 2.4L0 17.76C0 19.0848 1.0752 20.16 2.4 20.16L17.76 20.16C19.0848 20.16 20.16 19.0848 20.16 17.76L20.16 2.4C20.16 1.0752 19.0848 0 17.76 0ZM16.1856 13.92L14.3952 13.9152C14.3952 13.9152 14.3568 13.92 14.2944 13.92C14.1504 13.92 13.8528 13.8816 13.5024 13.6416C12.8736 13.2048 12.2736 12.12 11.7984 12.12C11.7648 12.12 11.736 12.1248 11.7072 12.1344C11.2944 12.264 11.1696 12.6768 11.1696 13.1808C11.1696 13.3584 11.0448 13.44 10.7088 13.44H9.7824C8.7456 13.44 7.7424 13.416 6.6144 12.1824C4.9536 10.3632 3.3984 7.128 3.3984 7.128C3.3984 7.128 3.312 6.9408 3.4032 6.8304C3.4896 6.7296 3.6912 6.72 3.768 6.72C3.7872 6.72 3.7968 6.72 3.7968 6.72H5.7168C5.7168 6.72 5.8944 6.7536 6.024 6.8496C6.1344 6.9312 6.192 7.08 6.192 7.08C6.192 7.08 6.5184 7.7136 6.9264 8.4288C7.6128 9.6096 7.9824 10.0032 8.2464 10.0032C8.2896 10.0032 8.3328 9.9936 8.376 9.9696C8.7696 9.7536 8.6544 8.0064 8.6544 8.0064C8.6544 8.0064 8.6592 7.3728 8.4528 7.0944C8.2944 6.8736 7.992 6.8112 7.8576 6.792C7.752 6.7776 7.9248 6.528 8.1552 6.4128C8.4528 6.2688 8.9472 6.24 9.5424 6.24H9.8304C10.392 6.2496 10.4064 6.3072 10.6272 6.36C11.2896 6.5184 11.064 7.1376 11.064 8.6208C11.064 9.096 10.9776 9.7632 11.3184 9.9888C11.3424 10.0032 11.376 10.0128 11.4192 10.0128C11.64 10.0128 12.1152 9.7296 12.8736 8.448C13.296 7.7184 13.6224 6.9936 13.6224 6.9936C13.6224 6.9936 13.6944 6.864 13.8048 6.7968C13.9104 6.7344 13.9104 6.7344 14.0496 6.7344H14.064C14.2176 6.7344 15.744 6.72 16.08 6.72H16.1184C16.44 6.72 16.7328 6.7248 16.7856 6.9216C16.8624 7.2192 16.5504 7.752 15.7296 8.856C14.376 10.6656 14.2224 10.5312 15.3456 11.5776C16.4208 12.576 16.6416 13.0608 16.68 13.1232C17.1264 13.8624 16.1856 13.92 16.1856 13.92Z" fill="black"/>
</svg>
