<svg width="30" height="30" viewBox="0 0 30 30" fill="none" xmlns="http://www.w3.org/2000/svg">
<path d="M-6.55671e-07 15C-1.01787e-06 23.2862 6.71375 30 15 30C23.2862 30 30 23.2863 30 15C30 6.71375 23.2863 -2.93467e-07 15 -6.55671e-07C6.71375 -1.01787e-06 -2.93467e-07 6.71375 -6.55671e-07 15ZM15.325 6.86375L20.9012 21.3263C21.1437 21.9975 20.7375 22.5837 19.7225 22.3662L19.7237 22.3675L8.1225 19.905C7.3 19.7225 7.1 19.2337 7.4875 18.55L10.2512 14.8L8.50875 12.9912C8.30875 12.7912 8.14 12.6225 8.14 12.235L11.9562 12.5012L18.235 19.4512C18.5012 19.7537 18.6512 19.3837 18.3862 18.985L12.9788 10.3962L14.1337 6.69375C14.3887 5.89 14.9375 5.8725 15.325 6.86375V6.86375Z" fill="black"/>
</svg>
